<?xml version="1.0" standalone="no"?>
<!DOCTYPE svg PUBLIC "-//W3C//DTD SVG 20010904//EN"
 "http://www.w3.org/TR/2001/REC-SVG-20010904/DTD/svg10.dtd">
<svg version="1.0" xmlns="http://www.w3.org/2000/svg"
 width="1024.000000pt" height="1024.000000pt" viewBox="0 0 1024.000000 1024.000000"
 preserveAspectRatio="xMidYMid meet">

<g transform="translate(0.000000,1024.000000) scale(0.100000,-0.100000)"
fill="#000000" stroke="none">
<path d="M5040 6046 c0 -2 8 -10 18 -17 15 -13 16 -12 3 4 -13 16 -21 21 -21
13z"/>
<path d="M5070 6006 c0 -2 8 -10 18 -17 15 -13 16 -12 3 4 -13 16 -21 21 -21
13z"/>
<path d="M5661 4684 c-146 -49 -261 -158 -317 -297 -27 -67 -29 -81 -28 -197
1 -103 5 -135 24 -185 57 -149 152 -242 315 -305 85 -33 267 -34 371 -2 157
48 269 160 324 322 26 76 28 241 4 321 -49 166 -180 299 -342 349 -97 30 -253
28 -351 -6z m294 -93 c85 -38 154 -130 190 -256 24 -80 17 -276 -12 -350 -118
-303 -448 -309 -572 -11 -44 105 -52 247 -22 365 26 100 58 159 114 206 88 75
198 92 302 46z"/>
<path d="M6685 4697 c-86 -29 -151 -83 -189 -156 -21 -40 -21 -169 -1 -219 34
-81 121 -145 285 -207 120 -46 176 -78 194 -113 64 -128 -23 -242 -184 -242
-93 1 -195 75 -245 179 -23 49 -33 61 -52 61 -23 0 -23 0 -23 -139 l0 -139 71
-17 c248 -56 437 -35 547 61 70 61 94 116 95 212 1 42 -5 94 -12 115 -22 64
-156 159 -288 203 -83 28 -153 67 -184 101 -23 27 -29 43 -29 82 0 88 56 131
167 131 112 -1 177 -43 222 -145 14 -33 26 -45 41 -45 20 0 21 4 18 118 l-3
117 -70 24 c-57 20 -94 25 -195 28 -84 2 -138 -2 -165 -10z"/>
<path d="M1940 4677 c0 -17 9 -26 35 -36 50 -18 77 -59 157 -238 38 -87 96
-216 128 -288 121 -272 180 -407 180 -416 0 -5 39 -9 88 -9 l87 0 34 83 c18
45 46 114 61 152 70 173 180 435 262 625 22 52 53 88 86 101 13 5 22 17 22 29
0 19 -6 20 -160 20 l-160 0 0 -24 c0 -17 7 -26 25 -30 13 -3 32 -20 40 -37 16
-29 14 -34 -56 -207 -39 -97 -95 -238 -124 -312 -29 -74 -58 -147 -65 -162
l-13 -27 -29 62 c-40 83 -215 488 -240 554 -27 74 -22 104 25 126 23 12 37 26
37 38 0 18 -10 19 -210 19 l-210 0 0 -23z"/>
<path d="M3303 4678 c3 -13 11 -41 17 -63 11 -38 8 -48 -53 -200 -272 -673
-256 -639 -305 -670 -17 -11 -31 -28 -32 -37 0 -16 14 -18 150 -18 137 0 150
2 150 18 0 10 -12 22 -30 29 -46 17 -55 53 -30 129 12 34 27 67 34 73 9 8 82
11 222 9 l208 -3 23 -60 c38 -99 30 -133 -40 -163 -57 -25 -16 -32 179 -32
l194 0 0 23 c0 17 -9 26 -34 35 -35 13 -58 44 -88 117 -9 22 -54 130 -98 240
-131 320 -166 405 -200 485 -17 41 -34 83 -37 93 -5 15 -20 17 -120 17 -115 0
-115 0 -110 -22z m165 -330 c47 -104 122 -285 122 -294 0 -2 -76 -4 -170 -4
-105 0 -170 4 -170 10 0 5 9 33 21 62 11 29 40 103 64 163 63 162 69 175 76
175 4 0 29 -51 57 -112z"/>
<path d="M4010 4676 c0 -18 7 -25 30 -29 59 -12 60 -23 60 -467 l0 -401 -25
-24 c-13 -14 -31 -25 -38 -25 -12 0 -27 -20 -27 -36 0 -2 168 -4 374 -4 l374
0 6 23 c3 12 6 36 6 54 0 32 23 154 35 186 6 14 1 17 -26 17 -30 0 -36 -6 -52
-39 -24 -52 -82 -110 -131 -131 -31 -14 -68 -18 -151 -18 -60 0 -118 4 -127 9
-17 9 -18 38 -18 412 0 442 -1 433 60 446 26 5 36 13 38 29 l3 22 -195 0 -196
0 0 -24z"/>
<path d="M4860 4676 c0 -19 7 -26 31 -31 57 -13 59 -29 59 -468 0 -380 -1
-395 -20 -420 -11 -14 -30 -27 -43 -29 -12 -2 -23 -11 -25 -20 -3 -17 11 -18
182 -18 175 0 186 1 186 19 0 11 -12 23 -31 31 -61 26 -60 18 -57 458 l3 400
24 26 c14 14 33 26 43 26 13 0 18 7 18 25 l0 25 -185 0 -185 0 0 -24z"/>
<path d="M7593 4683 c3 -10 13 -37 21 -61 18 -49 23 -35 -129 -402 -42 -102
-92 -225 -111 -275 -53 -134 -82 -185 -115 -203 -16 -9 -29 -25 -29 -34 0 -16
14 -18 145 -18 120 0 145 3 145 14 0 8 -12 21 -27 28 -15 7 -34 25 -42 40 -14
25 -13 32 15 100 l30 73 211 3 c161 2 212 -1 220 -10 21 -29 54 -129 51 -155
-2 -22 -12 -32 -45 -48 -82 -39 -59 -45 157 -45 184 0 200 1 200 18 0 9 -16
26 -37 37 -49 27 -66 53 -112 170 -21 55 -103 254 -181 443 l-143 342 -115 0
c-104 0 -114 -2 -109 -17z m139 -270 c34 -55 148 -332 148 -360 0 -2 -76 -3
-170 -3 -93 0 -170 1 -170 3 0 2 39 96 147 360 8 20 17 37 18 37 2 0 14 -17
27 -37z"/>
<path d="M3346 3301 c-56 -12 -96 -59 -96 -112 0 -65 37 -90 187 -129 45 -11
67 -37 57 -65 -15 -38 -105 -46 -182 -17 l-48 19 -12 -26 c-11 -22 -10 -28 5
-39 50 -36 183 -43 251 -12 32 14 47 29 58 57 31 73 -12 128 -118 153 -92 22
-118 36 -118 64 0 41 39 60 108 53 31 -3 66 -9 78 -12 15 -5 23 0 32 20 11 23
10 26 -16 37 -35 14 -136 19 -186 9z"/>
<path d="M3750 3104 l0 -204 160 0 160 0 0 35 0 35 -120 0 -120 0 0 49 0 48
66 7 c36 4 81 4 100 0 34 -6 34 -6 34 30 l0 36 -100 0 -100 0 0 50 0 50 115 0
115 0 0 35 0 36 -155 -2 -155 -1 0 -204z"/>
<path d="M4240 3204 c0 -60 3 -153 7 -206 l6 -98 34 0 33 0 0 60 0 60 58 0
c55 -1 58 -2 80 -38 47 -75 58 -83 103 -80 l41 3 -47 65 c-35 46 -44 65 -34
69 27 9 67 61 73 95 9 45 -1 85 -28 114 -41 46 -74 56 -203 60 l-123 4 0 -108z
m238 20 c31 -21 44 -58 32 -89 -14 -37 -61 -56 -128 -53 l-57 3 -3 78 -3 77
68 0 c47 0 76 -5 91 -16z"/>
<path d="M4736 3253 c15 -32 56 -124 92 -205 l65 -148 42 0 41 0 87 199 c48
109 87 201 87 205 0 3 -17 6 -38 6 l-38 0 -55 -126 c-29 -69 -58 -137 -63
-150 -6 -13 -13 -24 -16 -24 -4 0 -24 39 -45 88 -21 48 -51 115 -66 150 l-28
62 -45 0 -46 0 26 -57z"/>
<path d="M5300 3105 l0 -205 34 0 34 0 4 68 c3 37 3 129 0 205 l-5 137 -33 0
-34 0 0 -205z"/>
<path d="M5700 3298 c-155 -44 -199 -234 -80 -342 23 -21 59 -40 85 -47 44
-11 55 -22 35 -34 -15 -10 -12 -35 5 -35 21 0 19 -26 -2 -35 -16 -6 -15 -8 5
-16 56 -21 101 38 47 63 -37 17 -26 30 43 54 92 31 111 54 75 87 -16 14 -20
14 -38 1 -63 -46 -153 -37 -204 21 -27 31 -31 43 -31 92 0 51 3 58 39 94 36
36 42 39 97 39 41 0 69 -6 90 -19 l32 -19 23 25 c24 24 24 25 4 40 -55 42
-145 54 -225 31z"/>
<path d="M6213 3296 c-94 -31 -143 -98 -143 -197 1 -156 178 -248 337 -175 75
35 108 88 108 175 0 86 -25 136 -89 176 -56 34 -145 43 -213 21z m160 -73 c40
-20 71 -92 62 -144 -19 -111 -167 -152 -246 -68 -53 57 -50 137 6 193 46 47
110 53 178 19z"/>
<path d="M6755 3295 c-55 -20 -75 -47 -75 -105 0 -41 4 -52 29 -73 17 -14 60
-32 103 -42 78 -19 108 -37 108 -66 0 -46 -88 -63 -177 -33 -44 15 -48 15 -60
-2 -20 -27 -17 -33 30 -54 29 -14 65 -20 115 -20 121 0 172 35 172 118 0 59
-26 81 -136 112 -108 31 -130 55 -90 95 28 28 73 33 140 14 40 -11 50 -7 60
27 5 17 0 23 -33 32 -51 16 -137 14 -186 -3z"/>
</g>
</svg>
